<svg xmlns="http://www.w3.org/2000/svg" width="57" height="57" viewBox="0 0 57 57" fill="none"><script xmlns=""/>
<path d="M28.5 15.4375C33.0837 15.4375 36.8125 19.1663 36.8125 23.75C36.8125 24.89 36.575 25.9825 36.1475 26.98" stroke="#9063CD" stroke-width="2.375" stroke-miterlimit="10" stroke-linecap="round" stroke-linejoin="round"/>
<path d="M20.5914 26.3388C20.1843 25.0898 20.0786 23.7621 20.283 22.4644C20.4875 21.1668 20.9962 19.9359 21.7676 18.8726C22.5391 17.8093 23.5513 16.9437 24.7214 16.3466C25.8916 15.7496 27.1865 15.438 28.5002 15.4375" stroke="#00C389" stroke-width="2.375" stroke-miterlimit="10" stroke-linecap="round" stroke-linejoin="round"/>
<path d="M36.1471 26.9796C35.4887 28.5392 34.3698 29.8606 32.9401 30.7671C31.5104 31.6736 29.838 32.1219 28.1466 32.0522C26.4552 31.9825 24.8254 31.398 23.4752 30.3769C22.1249 29.3558 21.1186 27.9469 20.5908 26.3384" stroke="#F5B6CD" stroke-width="2.375" stroke-miterlimit="10" stroke-linecap="round" stroke-linejoin="round"/>
<path d="M10.6875 23.75C10.6875 13.9175 18.6675 5.9375 28.5 5.9375" stroke="#00CCEA" stroke-width="2.375" stroke-miterlimit="10" stroke-linecap="round" stroke-linejoin="round"/>
<path d="M28.5 51.0625C28.5 51.0625 10.6875 39.1875 10.6875 23.75" stroke="#FF7F37" stroke-width="2.375" stroke-miterlimit="10" stroke-linecap="round" stroke-linejoin="round"/>
<path d="M46.3125 23.75C46.3125 39.1875 28.5 51.0625 28.5 51.0625" stroke="#FDDA24" stroke-width="2.375" stroke-miterlimit="10" stroke-linecap="round" stroke-linejoin="round"/>
<path d="M28.5 5.9375C38.3325 5.9375 46.3125 13.9175 46.3125 23.75" stroke="#00C389" stroke-width="2.375" stroke-miterlimit="10" stroke-linecap="round" stroke-linejoin="round"/>
<script xmlns=""/></svg>