<svg xmlns="http://www.w3.org/2000/svg" width="57" height="57" viewBox="0 0 57 57" fill="none"><script xmlns=""/>
<path d="M34.4375 26.5288V10.6875L24.9375 17.48" stroke="#FDDA24" stroke-width="2.375" stroke-miterlimit="10" stroke-linecap="round" stroke-linejoin="round"/>
<path d="M26.3154 40.5173L34.4379 46.3123V26.5286" stroke="#00C389" stroke-width="2.375" stroke-miterlimit="10" stroke-linecap="round" stroke-linejoin="round"/>
<path d="M8.3125 30.875C8.3125 32.8462 9.90375 34.4375 11.875 34.4375H17.8125L26.315 40.5175" stroke="#00CCEA" stroke-width="2.375" stroke-miterlimit="10" stroke-linecap="round" stroke-linejoin="round"/>
<path d="M24.9375 17.4785L17.8125 22.561H11.875C9.90375 22.561 8.3125 24.1523 8.3125 26.1235V30.8735" stroke="#FF7F37" stroke-width="2.375" stroke-miterlimit="10" stroke-linecap="round" stroke-linejoin="round"/>
<path d="M44.4619 12.5383C53.2732 21.3496 53.2732 35.6471 44.4619 44.4583" stroke="#F5B6CD" stroke-width="2.375" stroke-miterlimit="10" stroke-linecap="round" stroke-linejoin="round"/>
<path d="M39.4238 39.4254C40.8582 37.9929 41.9961 36.2918 42.7725 34.4192C43.5488 32.5466 43.9484 30.5394 43.9484 28.5122C43.9484 26.4851 43.5488 24.4779 42.7725 22.6053C41.9961 20.7327 40.8582 19.0316 39.4238 17.5991" stroke="#9063CD" stroke-width="2.375" stroke-miterlimit="10" stroke-linecap="round" stroke-linejoin="round"/>
<script xmlns=""/></svg>