<svg xmlns="http://www.w3.org/2000/svg" width="231" height="216" viewBox="0 0 231 216" fill="none"><script xmlns=""/>
<path d="M112.147 209.566L118.499 126.655L198.678 108.59L188.468 172.344L112.147 209.566Z" fill="#FF7F41"/>
<path d="M78.2721 96.2288L43.2705 128.567L50.1684 198.024L112.147 209.566L120.376 138.948L78.2721 96.2288Z" fill="#00C389"/>
<path d="M78.2716 96.2288L39.5479 131.947L50.1678 198.024L112.146 209.566L120.376 138.948L78.2716 96.2288Z" fill="#9063CD"/>
<path d="M102.244 88.3405L106.957 93.1212L138.509 82.1939L134.138 77.7888L102.244 88.3405Z" fill="#2C2A29"/>
<path d="M16.2936 32.2356C25.1952 32.2356 32.4114 25.0194 32.4114 16.1178C32.4114 7.21619 25.1952 0 16.2936 0C7.39197 0 0.175781 7.21619 0.175781 16.1178C0.175781 25.0194 7.39197 32.2356 16.2936 32.2356Z" fill="#FDDA24"/>
<path d="M138.51 82.1941L134.173 77.7549L131.305 78.711C131.237 81.1014 130.588 83.3551 129.461 85.3357L138.51 82.1941Z" fill="#2C2A29"/>
<path d="M106.411 86.9749L102.245 88.3408L106.923 93.1215L112.148 91.3116C109.894 90.3896 107.914 88.8871 106.411 86.9749Z" fill="#2C2A29"/>
<path d="M66.1163 37.6309C64.7504 37.6309 63.3503 37.2212 62.1552 36.3675C59.1843 34.2845 55.7012 31.86 52.1498 29.8794C50.2034 28.8208 48.735 28.1037 47.4033 27.5573C45.8325 26.9427 44.3983 26.4987 43.1348 26.2597C39.4127 25.5767 36.954 22.0254 37.6028 18.3032C38.2858 14.5811 41.8372 12.1225 45.5593 12.7713C47.7447 13.1811 49.9985 13.8299 52.4572 14.8202C54.3353 15.5714 56.2817 16.4934 58.7404 17.8593L58.7745 17.8935C62.9064 20.1814 66.7993 22.8791 70.0775 25.2011C73.1508 27.3866 73.902 31.6551 71.6824 34.7625C70.3507 36.6407 68.2676 37.6309 66.1163 37.6309Z" fill="#F5B6CD"/>
<path d="M81.5857 39.2359C80.4589 39.2359 79.332 38.8602 78.4441 38.0748C76.4977 36.4016 74.4488 34.8308 72.4 33.2941C71.6146 32.7136 70.8975 32.2014 70.1803 31.6892L66.0143 28.7183C61.3702 25.4743 57.3407 22.8449 52.9015 20.7277C50.477 19.5667 49.4184 16.6641 50.5795 14.2055C51.7405 11.781 54.6431 10.7224 57.1017 11.8834C62.4971 14.4445 67.2778 17.6203 71.6828 20.7277L75.883 23.7327C76.6343 24.2791 77.3855 24.8255 78.1709 25.406C80.3906 27.0451 82.6102 28.7866 84.7615 30.5965C86.8104 32.338 87.0835 35.4113 85.342 37.4943C84.3517 38.6212 82.9858 39.2359 81.5857 39.2359Z" fill="#FDDA24"/>
<path d="M115.46 78.6424C113.308 78.6424 111.191 77.6521 109.859 75.7398C107.298 72.1543 104.601 68.5688 101.835 65.1881C100.571 63.6173 99.1711 61.9782 97.532 60.1001C95.8587 58.1537 94.4586 56.5828 93.0927 55.1145C90.5316 52.3144 90.7365 47.9776 93.5366 45.4506C96.3368 42.8895 100.674 43.0944 103.201 45.8946C104.635 47.4654 106.103 49.1045 107.845 51.1192C109.552 53.0998 111.055 54.8413 112.42 56.5146C115.391 60.1684 118.294 63.9588 121.026 67.8175C123.211 70.8908 122.494 75.1935 119.387 77.3789C118.191 78.2326 116.826 78.6424 115.46 78.6424Z" fill="#F5B6CD"/>
<path d="M84.488 51.5973C83.0196 51.5973 81.5513 51.0509 80.3902 49.9582C76.2925 45.9971 72.3313 42.6164 68.3019 39.6114C65.7067 37.6991 65.1261 34.0111 67.0726 31.4159C68.9849 28.8207 72.6728 28.2402 75.2681 30.1866C79.7414 33.4648 84.0782 37.1869 88.5516 41.5237C90.8736 43.7774 90.942 47.4996 88.6882 49.8216C87.5613 50.9826 86.0247 51.5973 84.488 51.5973Z" fill="#00C389"/>
<path d="M100.059 69.3883C98.113 69.3883 96.2007 68.5688 94.8348 66.9638C93.2298 65.0857 91.5566 63.1393 89.8151 61.227C88.0052 59.1781 86.332 57.3683 84.6929 55.6609C82.0635 52.9291 82.1659 48.5923 84.8978 45.9629C87.6296 43.3335 91.9664 43.4359 94.5958 46.1678C96.3373 47.9776 98.113 49.8899 100.025 52.0754C101.801 54.0901 103.577 56.1048 105.25 58.0854C107.709 60.9538 107.333 65.2906 104.464 67.7492C103.201 68.842 101.63 69.3883 100.059 69.3883Z" fill="#FF7F41"/>
<path d="M119.456 93.6675C117.954 93.6675 116.485 92.9846 115.529 91.6869L111.875 86.7697C111.636 86.4623 111.431 86.155 111.192 85.8477C111.09 85.7111 110.987 85.5745 110.885 85.4379L110.851 85.4037C110.612 85.0623 110.373 84.7208 110.168 84.3793L109.86 83.9354C109.314 83.1158 108.768 82.2963 108.221 81.4767C106.036 78.2668 103.714 75.0569 101.358 72.0178C99.7186 69.8664 100.094 66.7931 102.245 65.154C104.397 63.5149 107.47 63.8906 109.109 66.0419C111.602 69.2518 114.027 72.6324 116.349 76.0131C116.929 76.8668 117.475 77.6863 118.056 78.54L118.295 78.9156C118.5 79.1888 118.671 79.4962 118.876 79.7693C118.978 79.9059 119.08 80.0767 119.217 80.2133C119.388 80.4523 119.558 80.7255 119.763 80.9645L123.417 85.8818C125.022 88.0673 124.578 91.1064 122.393 92.7114C121.505 93.326 120.48 93.6675 119.456 93.6675Z" fill="#59CBE8"/>
<path d="M130.792 102.546C127.889 102.546 125.192 100.702 124.27 97.7994C123.894 96.6384 123.314 95.5115 122.835 94.5554C122.221 93.3944 121.47 92.2333 120.821 91.2772C119.762 89.7064 118.567 88.1356 117.44 86.5989C116.928 85.916 116.416 85.2672 115.938 84.5842C113.684 81.545 114.333 77.2424 117.406 75.0228C120.445 72.769 124.748 73.4179 126.967 76.4912C127.445 77.1058 127.924 77.7546 128.402 78.4034C129.631 80.0425 130.929 81.7499 132.192 83.6281C133.046 84.8915 134.036 86.3941 134.924 88.1014C135.675 89.5015 136.631 91.3796 137.314 93.5993C138.475 97.1848 136.495 101.043 132.909 102.205C132.192 102.444 131.475 102.546 130.792 102.546Z" fill="#9063CD"/>
<path d="M78.2722 96.2287L120.377 138.914L198.678 108.59L155.31 70.686L134.138 77.7546L138.475 82.1939L106.922 93.1212L102.244 88.3405L77.999 96.2287" fill="#59CBE8"/>
<path d="M38.5924 63.5493C47.494 63.5493 54.7102 56.3331 54.7102 47.4315C54.7102 38.5299 47.494 31.3137 38.5924 31.3137C29.6908 31.3137 22.4746 38.5299 22.4746 47.4315C22.4746 56.3331 29.6908 63.5493 38.5924 63.5493Z" fill="#FDDA24"/>
<path d="M112.147 209.566L154.388 215.2L230.265 178.833L188.468 172.344" fill="#00C389"/>
<script xmlns=""/></svg>