<svg xmlns="http://www.w3.org/2000/svg" width="411" height="166" viewBox="0 0 411 166" fill="none"><script xmlns=""/>
<path d="M399.885 126.173C394.342 117.156 388.227 108.418 381.242 100.316C380.372 99.3013 379.579 98.2283 378.65 97.2593L375.937 94.2963C374.114 92.3333 372.373 90.3003 370.415 88.4503L364.683 82.7833L358.661 77.3873C356.7 75.5403 354.521 73.9173 352.443 72.1933L349.293 69.6363C348.261 68.7643 347.121 68.0163 346.04 67.1993C343.844 65.6053 341.676 63.9763 339.461 62.4063L332.644 57.9133L330.94 56.7893C330.372 56.4163 329.77 56.0893 329.186 55.7363L325.66 53.6543C323.306 52.2703 320.988 50.8333 318.532 49.6083L311.264 45.7793L303.799 42.2983C293.767 37.8353 283.475 33.8223 272.822 30.8553C271.496 30.4733 270.189 30.0243 268.846 29.6983L264.82 28.6963L260.795 27.6923C260.124 27.5283 259.456 27.3493 258.781 27.1973L256.744 26.7913L248.599 25.1633C245.863 24.7173 243.118 24.3263 240.38 23.9023C237.647 23.4283 234.879 23.2033 232.121 22.9053C229.362 22.6233 226.608 22.2773 223.832 22.1743C221.06 22.0253 218.291 21.8273 215.517 21.7123L207.189 21.6093C196.086 21.6953 184.986 22.4453 174.001 24.0063" stroke="#59CBE8" stroke-width="20" stroke-linecap="round" stroke-linejoin="round"/>
<path d="M405.429 113.742C404.726 112.735 404.072 111.696 403.326 110.713L401.095 107.763C399.599 105.8 398.134 103.819 396.612 101.874L391.844 96.1813L389.454 93.3393L386.923 90.6043L381.857 85.1363L376.517 79.8953L373.842 77.2803C372.95 76.4083 371.981 75.6083 371.054 74.7683L365.432 69.7883C350.139 56.8003 333.028 45.6893 314.8 36.5593" stroke="#FF7F41" stroke-width="10.199" stroke-linecap="round" stroke-linejoin="round"/>
<path d="M231.516 15.0426C200.829 12.1866 169.602 15.2236 140.141 23.8426C110.672 32.4356 82.972 46.6136 59.142 65.4026" stroke="#FDDA24" stroke-width="27.201" stroke-linecap="round" stroke-linejoin="round"/>
<path d="M137.829 33.2909C109.652 42.7449 83.524 57.4829 61.34 76.3399C39.138 95.1779 20.881 118.139 8 143.566" stroke="#FF7F41" stroke-width="15" stroke-linecap="round" stroke-linejoin="round"/>
<script xmlns=""/></svg>