<svg xmlns="http://www.w3.org/2000/svg" width="57" height="57" viewBox="0 0 57 57" fill="none"><script xmlns=""/>
<path d="M41.5625 24.9375C41.5625 19.6887 37.3113 15.4375 32.0625 15.4375" stroke="#00C389" stroke-width="2.25" stroke-miterlimit="10" stroke-linecap="round" stroke-linejoin="round"/>
<path d="M48.6875 24.9375C48.6875 15.7463 41.2537 8.3125 32.0625 8.3125" stroke="#FDDA24" stroke-width="2.25" stroke-miterlimit="10" stroke-linecap="round" stroke-linejoin="round"/>
<path d="M32.0625 39.1875C24.2013 39.1875 17.8125 32.7987 17.8125 24.9375" stroke="#00CCEA" stroke-width="2.25" stroke-miterlimit="10" stroke-linecap="round" stroke-linejoin="round"/>
<path d="M36.8125 48.6644C39.235 48.5694 41.5863 48.1419 43.8188 47.4294C45.315 46.9544 46.3125 45.5769 46.3125 44.0094V37.9769C46.3125 36.0056 44.7212 34.4144 42.75 34.4144H37.3113C37.1555 34.4125 37.0011 34.4432 36.8579 34.5046C36.7148 34.5659 36.586 34.6566 36.48 34.7706L32.0625 39.1881" stroke="#FF7F37" stroke-width="2.25" stroke-miterlimit="10" stroke-linecap="round" stroke-linejoin="round"/>
<path d="M9.57031 29.6643C12.6816 39.4493 21.3028 46.9543 31.6578 48.4031C33.4153 48.6406 35.1253 48.7356 36.8116 48.6643" stroke="#F5B6CD" stroke-width="2.25" stroke-miterlimit="10" stroke-linecap="round" stroke-linejoin="round"/>
<path d="M17.8117 24.9375L22.2054 20.5437C22.4429 20.3062 22.5617 20.0212 22.5617 19.6887V14.25C22.5617 12.2787 20.9704 10.6875 18.9992 10.6875H12.9667C11.3992 10.6875 10.0217 11.685 9.54668 13.1813C7.87116 18.5477 7.87116 24.2973 9.54668 29.6637" stroke="#9063CD" stroke-width="2.25" stroke-miterlimit="10" stroke-linecap="round" stroke-linejoin="round"/>
<script xmlns=""/></svg>