<svg xmlns="http://www.w3.org/2000/svg" width="359" height="124" viewBox="0 0 359 124" fill="none"><script xmlns=""/>
<path d="M35.7019 20.5074C42.9329 29.1614 50.6699 37.4104 59.1379 44.8184C60.1929 45.7474 61.1849 46.7524 62.2889 47.6214L65.5419 50.3014C67.7219 52.0724 69.8349 53.9334 72.1249 55.5584L78.8789 60.5844L85.8649 65.2674C88.1579 66.8884 90.6209 68.2284 93.0039 69.6974L96.6059 71.8614C97.7919 72.6074 99.0619 73.2004 100.286 73.8784C102.759 75.1854 105.212 76.5354 107.7 77.8114L115.289 81.3794L117.186 82.2724C117.819 82.5684 118.474 82.8094 119.118 83.0804L122.996 84.6674C125.583 85.7194 128.147 86.8354 130.803 87.6994L138.704 90.4724L146.73 92.8364C157.474 95.7824 168.384 98.1984 179.442 99.4264C180.822 99.5934 182.195 99.8344 183.58 99.9384L187.736 100.274L191.89 100.613C192.583 100.665 193.275 100.736 193.968 100.774L196.051 100.836L204.38 101.088C207.157 101.065 209.933 100.981 212.709 100.934C215.489 100.941 218.255 100.674 221.025 100.488C223.793 100.284 226.569 100.15 229.318 99.7524C232.072 99.4034 234.834 99.1074 237.583 98.7224L245.79 97.3054C256.688 95.1774 267.452 92.3374 277.942 88.6474" stroke="#59CBE8" stroke-width="20" stroke-linecap="round" stroke-linejoin="round"/>
<path d="M30.6263 36.974C31.5163 37.923 32.3643 38.914 33.2903 39.828L36.0653 42.575C37.9223 44.401 39.7533 46.251 41.6323 48.053L47.4423 53.268L50.3523 55.87L53.3783 58.332L59.4373 63.252L65.7193 67.879L68.8653 70.186C69.9133 70.954 71.0233 71.633 72.1003 72.362L78.6083 76.658C96.2023 87.747 115.213 96.495 134.931 102.919" stroke="#FDDA24" stroke-width="12.103" stroke-linecap="round" stroke-linejoin="round"/>
<path d="M170.096 107.996C200.513 113.02 231.911 111.644 261.964 104.064C292.022 96.5125 320.734 82.7535 345.928 63.7195" stroke="#FF7F41" stroke-width="25" stroke-linecap="round" stroke-linejoin="round"/>
<script xmlns=""/></svg>