<svg xmlns="http://www.w3.org/2000/svg" width="143" height="99" viewBox="0 0 143 99" fill="none"><script xmlns=""/>
<path d="M78.5122 78.2667L119.137 77.9269L122.95 0H76.1714L78.5122 78.2667Z" fill="#FDDA24"/>
<path d="M142.904 76.4922H0V78.38H142.904V76.4922Z" fill="#9063CD"/>
<path d="M35.5089 45.0611H31.1104C30.5629 45.0611 30.1099 44.608 30.1099 44.0606C30.1099 43.5131 30.5629 43.0601 31.1104 43.0601H35.5089C36.0563 43.0601 36.5094 43.5131 36.5094 44.0606C36.4905 44.608 36.0563 45.0611 35.5089 45.0611Z" fill="#2C2A29"/>
<path d="M49.9313 70.5268H37.321C36.1695 70.5268 35.2256 69.583 35.2256 68.4314V42.5124C35.2256 41.3609 36.1695 40.417 37.321 40.417H49.9313C51.0828 40.417 52.0267 41.3609 52.0267 42.5124V68.4503C52.0267 69.6018 51.0828 70.5268 49.9313 70.5268Z" fill="#2C2A29"/>
<path d="M67.8271 62.4661H40.1714V70.5457H67.8271V62.4661Z" fill="#2C2A29"/>
<path d="M75.1707 92.3306H66.336C65.7885 92.3306 65.3354 91.8776 65.3354 91.3301C65.3354 90.7827 65.7885 90.3296 66.336 90.3296H75.1707C75.7182 90.3296 76.1712 90.7827 76.1712 91.3301C76.1712 91.8776 75.7182 92.3306 75.1707 92.3306Z" fill="#2C2A29"/>
<path d="M59.9932 87.3658V72.4903C59.9932 71.9428 60.4462 71.4897 60.9937 71.4897C61.5411 71.4897 61.9942 71.9428 61.9942 72.4903V87.3658C61.9942 87.9133 61.5411 88.3664 60.9937 88.3664C60.4462 88.3664 59.9932 87.9133 59.9932 87.3658Z" fill="#2C2A29"/>
<path d="M60.9937 88.3663C63.0513 88.3663 64.7314 90.0464 64.7314 92.1041C64.7314 94.1618 63.0513 95.8419 60.9937 95.8419C58.936 95.8419 57.2559 94.1618 57.2559 92.1041C57.2559 90.0464 58.936 88.3663 60.9937 88.3663ZM60.9937 86.2332C57.7656 86.2332 55.1416 88.8571 55.1416 92.0852C55.1416 95.3133 57.7656 97.9373 60.9937 97.9373C64.2218 97.9373 66.8457 95.3133 66.8457 92.0852C66.8457 88.8571 64.2218 86.2332 60.9937 86.2332Z" fill="#2C2A29"/>
<path d="M83.6091 44.1737C84.8602 44.1737 85.8744 43.1595 85.8744 41.9084C85.8744 40.6573 84.8602 39.6431 83.6091 39.6431C82.358 39.6431 81.3438 40.6573 81.3438 41.9084C81.3438 43.1595 82.358 44.1737 83.6091 44.1737Z" fill="#2C2A29"/>
<path d="M59.206 30.1016C61.5563 27.6463 61.288 23.5752 58.6067 21.0087C55.9255 18.4421 51.8466 18.3519 49.4963 20.8072C47.146 23.2625 47.4143 27.3335 50.0956 29.9001C52.7768 32.4667 56.8557 32.5569 59.206 30.1016Z" fill="#8F6121"/>
<path d="M62.5605 67.5065H40.8135V55.085H59.5212C61.2013 55.085 62.5605 56.4442 62.5605 58.1243V67.5065Z" fill="#2C2A29"/>
<path d="M36.5663 83.4205C38.2657 83.4205 39.6434 82.0428 39.6434 80.3434C39.6434 78.644 38.2657 77.2664 36.5663 77.2664C34.8669 77.2664 33.4893 78.644 33.4893 80.3434C33.4893 82.0428 34.8669 83.4205 36.5663 83.4205Z" fill="#FDDA24"/>
<path d="M60.9939 94.0107C62.0573 94.0107 62.9194 93.1486 62.9194 92.0852C62.9194 91.0217 62.0573 90.1597 60.9939 90.1597C59.9304 90.1597 59.0684 91.0217 59.0684 92.0852C59.0684 93.1486 59.9304 94.0107 60.9939 94.0107Z" fill="#FDDA24"/>
<path d="M71.8108 90.4052C71.622 90.4052 71.4333 90.4052 71.2256 90.3863C67.6011 90.0654 64.9205 86.875 65.2414 83.2505L66.6006 67.7331L59.4271 68.1295C55.8026 68.3372 52.6878 65.5433 52.4801 61.9188C52.2725 58.2943 55.0663 55.1795 58.6909 54.9718L73.4532 54.1601C75.3598 54.0468 77.2098 54.783 78.5501 56.1611C79.8716 57.5392 80.5512 59.4081 80.3813 61.3147L78.3614 84.4021C78.0593 87.8189 75.1899 90.4052 71.8108 90.4052Z" fill="#00C389"/>
<path d="M59.9932 55.8023H40.8135L41.6441 48.138C41.9461 45.3252 42.89 42.6257 44.4002 40.2849C45.7405 38.1894 47.6472 36.5471 49.8936 35.5277L50.0258 35.4711C52.8952 34.1874 56.1421 34.0175 59.0682 35.0369L59.9932 55.8023Z" fill="#F5B6CD"/>
<path d="M105.998 49.5916C105.054 63.0513 106.564 76.8886 106.262 90.4428C106.187 94.0107 103.751 97.1066 100.297 98.0127C95.332 99.3153 90.4426 95.653 90.2916 90.5372C89.9707 80.0223 89.6498 63.6743 90.2539 53.8579" fill="#2C2A29"/>
<path d="M102.373 26.1644C100.995 25.1261 99.3907 24.371 97.5218 24.1067C95.4641 23.8047 93.3498 23.8613 91.3299 24.2578L88.3662 25.3527L85.5156 55.3681H108.981H111.793C112.133 55.4059 110.208 44.4569 110.075 43.7206C109.245 39.4165 108.49 35.1879 106.564 31.4124C105.583 29.4302 104.186 27.5425 102.373 26.1644Z" fill="white"/>
<path d="M99.214 19.291C101.873 16.746 102.14 12.7108 99.8116 10.2781C97.4829 7.84541 93.4399 7.93639 90.7812 10.4813C88.1226 13.0263 87.855 17.0615 90.1837 19.4942C92.5124 21.9269 96.5554 21.8359 99.214 19.291Z" fill="#8F6121"/>
<path d="M89.4042 55.9347C89.1022 55.9347 88.8001 55.8214 88.5736 55.5949C88.0828 55.123 88.0639 54.3679 88.5358 53.877C89.8573 52.499 91.0277 51.0076 92.0471 49.4219C95.6149 43.9096 97.2951 37.2458 96.8231 30.6953C96.7665 30.0346 97.2762 29.4494 97.9369 29.3927C98.5976 29.3361 99.1828 29.8458 99.2395 30.5065C99.768 37.5856 97.9369 44.7591 94.0859 50.7245C92.991 52.4235 91.7073 54.0469 90.2914 55.5383C90.046 55.8026 89.7251 55.9347 89.4042 55.9347Z" fill="#59CBE8"/>
<path d="M86.4971 61.6735C86.1195 61.6735 85.7231 61.4847 85.4966 61.1449C85.119 60.5975 85.2511 59.8424 85.7986 59.4648C88.6491 57.5016 91.1221 54.9342 92.991 52.027C93.3497 51.4607 94.1048 51.2908 94.6711 51.6495C95.2374 52.0082 95.4073 52.7633 95.0486 53.3296C93.0099 56.501 90.2915 59.3138 87.1955 61.4659C86.969 61.598 86.7425 61.6735 86.4971 61.6735Z" fill="#00C389"/>
<path d="M95.7284 35.1126C95.0677 35.1126 94.5391 34.584 94.5202 33.9422C94.5202 33.7534 94.5013 33.5457 94.5013 33.3192C94.4258 31.658 94.3881 30.2044 94.7467 29.2416C95.3131 27.7125 96.6723 26.8819 98.3901 27.0329C100.165 27.1651 101.278 28.3733 101.524 30.412C101.599 31.0728 101.127 31.6768 100.467 31.7524C99.8059 31.8279 99.2019 31.3559 99.1263 30.6952C98.9942 29.5059 98.5223 29.4682 98.2202 29.4493C97.4085 29.3926 97.1631 29.7891 97.0498 30.0911C96.8233 30.6763 96.8988 32.3376 96.9365 33.2248C96.9554 33.4702 96.9554 33.6967 96.9554 33.8855C96.9743 34.5651 96.4457 35.1126 95.785 35.1315C95.7472 35.1126 95.7284 35.1126 95.7284 35.1126Z" fill="#F5B6CD"/>
<path d="M96.88 49.4408C96.6912 49.4408 96.4836 49.3842 96.2948 49.2898C95.7096 48.9688 95.483 48.2326 95.804 47.6474C98.6734 42.3994 99.8438 36.0188 99.032 30.1101C98.9376 29.4493 99.4096 28.8264 100.07 28.732C100.731 28.6376 101.354 29.1096 101.448 29.7703C102.336 36.1698 101.071 43.1168 97.956 48.7989C97.7295 49.2143 97.2953 49.4408 96.88 49.4408Z" fill="#00C389"/>
<path d="M60.9937 68.9412L40.8135 67.5065V55.085H61.56C63.4289 55.085 64.7692 56.8972 64.2029 58.6906L60.9937 68.9412Z" fill="#2C2A29"/>
<path d="M22.1998 72.9621C21.9355 72.9621 21.6712 72.8866 21.4258 72.7356C20.7462 72.3014 20.5385 71.4141 20.9539 70.7345C22.4074 68.3937 24.3896 66.3927 26.6549 64.9391C27.8064 64.2029 29.0335 63.5988 30.2983 63.1268C31.582 62.6549 32.9223 62.334 34.2815 62.1641C35.0743 62.0697 35.8106 62.636 35.905 63.4289C35.9993 64.2218 35.433 64.958 34.6401 65.0524C33.4886 65.2034 32.3748 65.4677 31.2988 65.8452C30.2228 66.2417 29.1845 66.7514 28.2217 67.3743C26.3151 68.5825 24.6727 70.2815 23.4268 72.2636C23.1625 72.7356 22.6906 72.9621 22.1998 72.9621Z" fill="#00C389"/>
<path d="M50.3465 75.5484C49.7047 75.5484 49.1006 75.1898 48.8174 74.5668C48.0434 72.9056 46.8919 71.3954 45.4949 70.1683C44.1169 68.9413 42.4556 68.0163 40.7189 67.4499C38.9633 66.8836 37.0755 66.6948 35.2255 66.8647C33.4132 67.0346 31.601 67.6009 29.9775 68.5071C29.1658 68.9601 28.1275 68.677 27.6744 67.8464C27.2214 67.0346 27.5045 65.9964 28.3351 65.5433C30.3551 64.4106 32.6393 63.6933 34.9234 63.4856C37.2265 63.2591 39.5862 63.5234 41.776 64.2219C43.9658 64.9203 46.0424 66.0907 47.7603 67.6198C49.497 69.1489 50.9317 71.0556 51.9133 73.1321C52.3098 73.9816 51.9511 75.001 51.1016 75.3974C50.8373 75.5107 50.5919 75.5484 50.3465 75.5484Z" fill="#9063CD"/>
<path d="M36.0749 97.2764C36.056 97.2764 36.0371 97.2764 36.0371 97.2764C32.0728 97.1631 28.1085 95.5585 25.1636 92.8779C23.6911 91.5187 22.4641 89.933 21.5391 88.1585C20.6141 86.4029 20.01 84.4774 19.7646 82.4763C19.6513 81.5513 20.312 80.7018 21.237 80.5886C22.1621 80.4753 23.0115 81.136 23.1248 82.061C23.3325 83.6656 23.8044 85.1947 24.5406 86.5917C25.2769 88.0264 26.2585 89.2912 27.4478 90.3672C29.7886 92.5192 32.9601 93.8029 36.1126 93.8784C37.0565 93.8973 37.7928 94.6902 37.7739 95.6152C37.755 96.5402 36.9999 97.2764 36.0749 97.2764Z" fill="#FDDA24"/>
<path d="M23.2757 91.9342C22.9171 91.9342 22.5584 91.7643 22.313 91.4622C21.4446 90.3485 20.7272 89.178 20.1798 87.9887C19.6135 86.7617 19.1604 85.4591 18.8772 84.1188C18.3109 81.4948 18.3487 78.7009 19.0094 76.0203C19.1604 75.3596 19.8211 74.9632 20.4818 75.1331C21.1426 75.2841 21.539 75.9448 21.3691 76.6055C20.8028 78.9275 20.765 81.3627 21.2558 83.628C21.5012 84.7795 21.8788 85.9122 22.3885 86.9882C22.8604 88.0265 23.4834 89.0459 24.2385 89.9898C24.6538 90.5184 24.5594 91.2735 24.0308 91.6888C23.8043 91.8398 23.54 91.9342 23.2757 91.9342Z" fill="#FF7F41"/>
<path d="M36.5653 98.9001C33.6771 98.9001 30.7888 98.2205 28.2214 96.918C27.3908 96.5027 27.051 95.4644 27.4663 94.6338C27.8816 93.8032 28.9199 93.4634 29.7505 93.8787C32.601 95.3323 35.9424 95.8231 39.1516 95.2567C40.6995 94.9925 42.2286 94.4639 43.72 93.6899C44.3996 93.3123 45.0792 92.8782 45.721 92.3873C45.7776 92.3307 45.8531 92.293 45.9098 92.2363C46.0042 92.1608 46.0986 92.0853 46.1741 92.0287L46.6649 91.6134C46.9669 91.3302 47.2501 91.0659 47.5144 90.7827C48.1562 90.1031 49.2322 90.0654 49.9118 90.7072C50.5914 91.3491 50.6292 92.4251 49.9873 93.1047C49.6476 93.4634 49.2889 93.8032 48.968 94.1052L48.8924 94.1807L48.3827 94.6149C48.2506 94.7282 48.0996 94.8414 47.9674 94.9358C47.9108 94.9736 47.8542 95.0113 47.7975 95.068L47.7598 95.0868C46.9669 95.6909 46.1363 96.2195 45.2868 96.6914C43.4557 97.6542 41.5868 98.296 39.699 98.617C38.6796 98.8057 37.6225 98.9001 36.5653 98.9001Z" fill="#59CBE8"/>
<path d="M44.192 94.7469C43.7767 94.7469 43.3614 94.5203 43.1349 94.1428C42.7951 93.5576 43.0027 92.8214 43.5879 92.4816C45.3435 91.481 46.8915 90.0463 48.0997 88.3285C49.2512 86.6484 50.0441 84.704 50.3839 82.6463C50.4971 81.9856 51.1201 81.5325 51.7808 81.6458C52.4415 81.7591 52.8946 82.382 52.7813 83.0427C52.3849 85.4402 51.4599 87.7433 50.0818 89.7065C48.6849 91.7076 46.8538 93.4066 44.7961 94.577C44.6073 94.6902 44.3997 94.7469 44.192 94.7469Z" fill="#F5B6CD"/>
<path d="M53.3855 82.231C53.3666 82.231 53.3478 82.231 53.3289 82.231C52.6682 82.1933 52.1396 81.627 52.1773 80.9662C52.2529 79.2106 52.0263 77.4361 51.4977 75.6994C50.9692 74.0193 50.1574 72.4147 49.0814 70.98C48.0243 69.5641 46.7217 68.3371 45.2304 67.3366C43.7957 66.3549 42.1533 65.6376 40.3788 65.1845C39.737 65.0146 39.3405 64.3539 39.4916 63.7121C39.6615 63.0702 40.3222 62.6738 40.964 62.8248C43.0217 63.3534 44.9094 64.184 46.5896 65.3167C48.3263 66.4871 49.8176 67.9029 51.0447 69.5264C52.2906 71.1876 53.2345 73.0376 53.8386 74.982C54.4615 76.9831 54.7258 79.0407 54.6314 81.0795C54.5748 81.7213 54.0462 82.231 53.3855 82.231Z" fill="#FDDA24"/>
<script xmlns=""/></svg>