<svg xmlns="http://www.w3.org/2000/svg" width="57" height="57" viewBox="0 0 57 57" fill="none"><script xmlns=""/>
<path d="M27.3125 13.0625H32.0625" stroke="#00C389" stroke-width="2.29167" stroke-miterlimit="10" stroke-linecap="round" stroke-linejoin="round"/>
<path d="M29.6875 43.9375C30.9992 43.9375 32.0625 42.8742 32.0625 41.5625C32.0625 40.2508 30.9992 39.1875 29.6875 39.1875C28.3758 39.1875 27.3125 40.2508 27.3125 41.5625C27.3125 42.8742 28.3758 43.9375 29.6875 43.9375Z" stroke="#9063CD" stroke-width="2.29167" stroke-miterlimit="10" stroke-linecap="round" stroke-linejoin="round"/>
<path d="M41.5625 26.125V11.875C41.5625 9.90375 39.9713 8.3125 38 8.3125H22.5625" stroke="#FDDA24" stroke-width="2.29167" stroke-miterlimit="10" stroke-linecap="round" stroke-linejoin="round"/>
<path d="M28.5 48.6875H38C39.9712 48.6875 41.5625 47.0963 41.5625 45.125V26.125" stroke="#FF7F37" stroke-width="2.29167" stroke-miterlimit="10" stroke-linecap="round" stroke-linejoin="round"/>
<path d="M17.8125 27.3125V45.125C17.8125 47.0963 19.4038 48.6875 21.375 48.6875H28.5" stroke="#00CCEA" stroke-width="2.29167" stroke-miterlimit="10" stroke-linecap="round" stroke-linejoin="round"/>
<path d="M22.5625 8.3125H21.375C19.4038 8.3125 17.8125 9.90375 17.8125 11.875V27.3125" stroke="#F5B6CD" stroke-width="2.29167" stroke-miterlimit="10" stroke-linecap="round" stroke-linejoin="round"/>
<script xmlns=""/></svg>