<svg xmlns="http://www.w3.org/2000/svg" width="135" height="99" viewBox="0 0 135 99" fill="none"><script xmlns=""/>
<path d="M35.4043 15.8264V94.0581C35.4043 96.643 37.5223 98.761 40.1072 98.761H87.9034C90.4883 98.761 92.6063 96.643 92.6063 94.0581V15.8264C92.6063 13.2415 90.4883 11.1235 87.9034 11.1235H40.1072C37.5056 11.1235 35.4043 13.2248 35.4043 15.8264Z" fill="#9063CD"/>
<path d="M39.5234 10.7066V88.9382C39.5234 91.5231 41.6414 93.6411 44.2263 93.6411H92.0225C94.6074 93.6411 96.7254 91.5231 96.7254 88.9382V10.7066C96.7254 8.12164 94.6074 6.00366 92.0225 6.00366H44.2263C41.6414 6.00366 39.5234 8.12164 39.5234 10.7066Z" fill="#FDDA24"/>
<path d="M44.3096 4.7029V82.9345C44.3096 85.5195 46.4275 87.6374 49.0125 87.6374H96.8086C99.3936 87.6374 101.512 85.5195 101.512 82.9345V4.7029C101.512 2.11797 99.3936 0 96.8086 0H49.0125C46.4275 0 44.3096 2.11797 44.3096 4.7029Z" fill="#2C2A29"/>
<path d="M50.3805 41.6255C50.5139 42.1092 50.9976 42.376 51.5146 42.2092C55.6504 40.9418 59.803 40.0746 64.089 39.4575C64.5726 39.3908 64.8561 38.8905 64.6727 38.3902C64.2891 37.3229 64.1057 36.7892 63.7054 35.7386C63.5386 35.2883 63.0884 34.9881 62.6381 35.0382C58.4522 35.5551 54.3997 36.3056 50.3472 37.473C49.8135 37.6398 49.4966 38.2234 49.6301 38.7404C49.9302 39.8911 50.0803 40.4582 50.3805 41.6255Z" fill="white"/>
<path d="M67.174 42.2092C67.0072 41.7256 66.5736 41.4087 66.14 41.4754C59.586 42.3092 53.1987 43.9102 47.145 46.5619C46.7114 46.762 46.4445 47.3123 46.5279 47.8127C46.7614 49.0467 46.8781 49.6805 47.1283 50.9146C47.2283 51.4482 47.7287 51.6984 48.229 51.4482C54.3828 48.6632 60.8701 46.8787 67.5409 45.8114C67.9578 45.7447 68.1746 45.2611 68.0245 44.7608C67.691 43.7435 67.5242 43.2265 67.174 42.2092Z" fill="white"/>
<path d="M67.1568 49.147C66.99 48.6467 66.523 48.3132 66.0728 48.3966C61.9869 49.2804 57.9844 50.3311 54.0153 51.6819C53.515 51.8654 53.2315 52.399 53.3649 52.8827C53.6818 54.0334 53.8319 54.6171 54.1654 55.7678C54.3155 56.3181 54.9326 56.5849 55.4996 56.3681C59.4687 54.9673 63.4712 53.7332 67.557 52.7492C67.9573 52.6492 68.1407 52.1989 67.9906 51.732C67.6404 50.698 67.4903 50.181 67.1568 49.147Z" fill="white"/>
<path d="M87.1033 48.1963C87.1033 51.2815 84.0014 53.3328 80.4659 53.3328H73.9785V36.3056C76.1465 35.9888 77.7642 35.772 79.6987 35.772C83.2509 35.772 86.1027 37.4397 86.1027 40.3248C86.1027 41.9925 85.2355 43.0932 83.6845 43.6935C86.0693 44.394 87.1033 45.8449 87.1033 48.1963ZM79.6987 39.1074C79.1484 39.1074 78.5647 39.1574 78.0143 39.2408V42.7429H79.7988C81.3831 42.7429 82.1169 42.0925 82.1169 40.9585C82.1169 39.8578 81.3664 39.1074 79.6987 39.1074ZM82.7839 48.0129C82.7839 46.612 81.8834 46.045 80.1156 46.045H78.0143V49.9974H80.099C81.8167 49.9807 82.7839 49.297 82.7839 48.0129Z" fill="white"/>
<path d="M100.262 45.0277V51.9487C98.8442 53.0327 96.5427 53.6163 93.4408 53.6163C90.6724 53.6163 88.3877 52.4823 88.3877 49.9808C88.3877 46.2118 92.0566 45.2945 96.3926 45.1611C96.3093 43.5268 95.6589 43.1099 94.208 43.1099C93.4408 43.1099 91.4229 43.4601 91.1561 43.4601C90.5223 43.4601 90.022 43.0598 89.6051 41.9091L89.2883 40.9585C90.9226 40.3582 92.5236 39.9246 94.2747 39.9246C98.0437 39.9246 100.262 41.3421 100.262 45.0277ZM96.3926 49.9474V47.696H95.6255C93.8411 47.696 92.2067 48.0963 92.2067 49.3304C92.2067 50.281 92.8404 50.6145 94.1246 50.6145C95.1419 50.6145 95.9924 50.2976 96.3926 49.9474Z" fill="white"/>
<path d="M96.6589 6.43719V17.9276C96.6589 18.8949 95.8918 19.6954 94.9579 19.6954H88.4205H86.7528C85.8022 19.6954 85.0518 18.9116 85.0518 17.9276V6.43719C85.0518 5.46993 85.8189 4.66943 86.7528 4.66943H94.9745C95.8918 4.66943 96.6589 5.46993 96.6589 6.43719Z" fill="#E6DCCB"/>
<path d="M93.9399 17.5775H87.7194C87.1691 17.5775 86.7021 17.1272 86.7021 16.5602V7.88814C86.7021 7.3378 87.1524 6.87085 87.7194 6.87085H93.9399C94.4903 6.87085 94.9572 7.32113 94.9572 7.88814V16.5602C94.9572 17.1272 94.507 17.5775 93.9399 17.5775ZM87.7361 7.10433C87.3025 7.10433 86.9523 7.45454 86.9523 7.88814V16.5602C86.9523 16.9938 87.3025 17.344 87.7361 17.344H93.9566C94.3902 17.344 94.7404 16.9938 94.7404 16.5602V7.88814C94.7404 7.45454 94.3902 7.10433 93.9566 7.10433H87.7361V7.10433Z" fill="#2C2A29"/>
<path d="M88.2871 17.4675L88.2773 19.6855L88.4941 19.6865L88.5039 17.4685L88.2871 17.4675Z" fill="#2C2A29"/>
<path d="M92.4707 17.4651L92.4609 19.6831L92.6777 19.6841L92.6875 17.466L92.4707 17.4651Z" fill="#2C2A29"/>
<path d="M88.5029 4.71948H88.2861V6.77075H88.5029V4.71948Z" fill="#2C2A29"/>
<path d="M92.6895 4.71948H92.4727V6.77075H92.6895V4.71948Z" fill="#2C2A29"/>
<path d="M126.394 69.1426C125.994 69.1426 125.594 69.0926 125.21 68.9758C122.809 68.3254 121.408 65.8406 122.058 63.4557L122.258 62.6886L122.459 61.8047C122.475 61.688 122.492 61.5879 122.525 61.4712C122.609 61.0209 122.692 60.5873 122.725 60.2204L122.742 60.1204L122.809 59.6534C122.809 59.6201 122.809 59.5867 122.809 59.5533C122.809 59.4866 122.825 59.4199 122.825 59.3532C122.842 59.2198 122.842 59.0864 122.859 58.9696C122.876 58.8196 122.892 58.6695 122.892 58.5527L122.926 57.5855C122.926 57.5021 122.926 57.352 122.926 57.2019C122.926 57.0685 122.926 56.9351 122.926 56.8183C122.892 55.6176 122.792 54.5836 122.609 53.683V53.6664C122.375 52.4823 122.108 51.4984 121.791 50.6812L121.641 50.2643L121.308 49.4971C121.275 49.4304 121.258 49.3804 121.224 49.3137L121.208 49.297L120.674 48.263L120.341 47.7127C120.224 47.5126 120.04 47.2457 119.84 46.9456C119.74 46.7955 119.64 46.662 119.54 46.512C119.473 46.4119 119.39 46.3285 119.323 46.2284C119.24 46.1284 119.157 46.0116 119.073 45.9116L118.84 45.6281C118.823 45.6114 118.806 45.5947 118.79 45.578C118.74 45.528 118.69 45.4613 118.64 45.4113L118.073 44.7776C117.972 44.6775 117.889 44.5941 117.789 44.494C117.689 44.394 117.589 44.2939 117.489 44.2105L117.172 43.8937C117.105 43.8436 117.039 43.7769 116.972 43.7269L116.205 43.0765C116.188 43.0598 116.171 43.0598 116.155 43.0431L115.304 42.4094C115.254 42.3761 115.221 42.3427 115.171 42.3094L115.121 42.276L113.953 41.5089C113.92 41.4922 113.887 41.4755 113.853 41.4588C113.787 41.4255 113.72 41.3755 113.653 41.3421C111.502 40.0913 110.785 37.3396 112.035 35.1883C113.286 33.037 116.038 32.3199 118.189 33.5706L118.306 33.6373C118.439 33.7207 118.59 33.7874 118.723 33.8708L118.84 33.9542L120.024 34.738C120.291 34.9048 120.491 35.0549 120.607 35.1549L121.508 35.8387C121.658 35.9554 121.875 36.1055 122.125 36.3223L122.926 37.0061C123.042 37.1061 123.226 37.2562 123.443 37.4564L123.793 37.7899C123.876 37.8733 123.96 37.9567 124.043 38.0234C124.21 38.1902 124.376 38.3402 124.543 38.507L124.693 38.6571L125.444 39.491C125.56 39.6077 125.677 39.7411 125.777 39.8745L125.861 39.9746L126.178 40.3748C126.244 40.4582 126.311 40.5416 126.361 40.625C126.494 40.8084 126.661 41.0086 126.828 41.2254L126.945 41.3921C127.028 41.5255 127.128 41.659 127.228 41.7924C127.528 42.2093 127.862 42.6929 128.179 43.2599L128.596 43.9437L129.196 45.1111C129.346 45.3779 129.446 45.6114 129.496 45.7615L130.03 46.9956L130.18 47.4125C130.697 48.7467 131.097 50.2142 131.431 51.9153C131.714 53.3328 131.864 54.8504 131.914 56.5848V56.7016C131.914 56.785 131.914 56.885 131.914 56.9684C131.914 57.2186 131.931 57.5188 131.914 57.869L131.881 58.9029C131.864 59.2031 131.848 59.4866 131.814 59.7201C131.798 59.8202 131.798 59.9202 131.781 60.0203V60.1037C131.781 60.137 131.781 60.1704 131.764 60.2037C131.748 60.3372 131.731 60.5373 131.714 60.7541L131.648 61.221C131.581 61.8714 131.464 62.4885 131.364 63.0221C131.347 63.1556 131.314 63.289 131.297 63.4224L131.247 63.6392L130.93 65.0567L130.73 65.7905C130.18 67.8251 128.362 69.1426 126.394 69.1426Z" fill="#59CBE8"/>
<path d="M103.746 89.7387C101.995 89.7387 100.578 88.3378 100.545 86.5868C100.511 84.819 101.912 83.3514 103.696 83.3014C106.181 83.2514 108.6 82.9011 110.884 82.2507L111.084 82.184C111.501 82.0506 111.902 81.9339 112.252 81.8171H112.268C112.368 81.7838 112.485 81.7504 112.585 81.7004C112.719 81.6504 112.852 81.6003 112.952 81.567L113.769 81.2334C113.919 81.1834 114.103 81.0834 114.303 81L115.02 80.6664L116.004 80.1494L116.955 79.5991L117.655 79.1488C117.889 78.9987 118.155 78.8153 118.422 78.6152C118.556 78.5151 118.672 78.4317 118.806 78.3317C119.74 77.5979 120.423 77.0142 120.99 76.4305L121.041 76.3805C121.641 75.7968 122.258 75.0963 122.975 74.1958L123.442 73.562C123.475 73.512 123.509 73.462 123.542 73.4286C123.559 73.3953 123.592 73.3619 123.609 73.3286L124.259 72.3446L124.659 71.6775C125.643 70.0265 126.461 68.1921 127.111 66.1908C127.745 64.2563 128.178 62.2551 128.395 60.2538C128.612 58.2192 128.612 56.1847 128.378 54.2168C128.178 52.449 129.429 50.8647 131.197 50.6646C132.965 50.4645 134.549 51.7152 134.749 53.483C135.032 55.9178 135.032 58.436 134.766 60.9543C134.499 63.4058 133.965 65.8239 133.215 68.1754C132.431 70.6102 131.397 72.895 130.179 74.9629L129.662 75.8301L128.945 76.8974C128.862 77.0309 128.779 77.1476 128.679 77.2643L128.028 78.1482C127.128 79.2822 126.327 80.1828 125.51 80.9833C124.726 81.7671 123.842 82.5343 122.658 83.4515L122.541 83.5349C122.425 83.6183 122.291 83.7183 122.175 83.8017C121.841 84.0519 121.457 84.3354 121.024 84.6022L120.207 85.1192L118.989 85.8196L117.738 86.47L116.938 86.8369C116.671 86.9536 116.371 87.1037 116.037 87.2205L115.287 87.5207C115.037 87.6207 114.82 87.6874 114.62 87.7708C114.553 87.8042 114.47 87.8208 114.403 87.8542C113.853 88.0543 113.352 88.2044 112.852 88.3545L112.602 88.4379C109.784 89.2384 106.798 89.6887 103.763 89.7387C103.797 89.7387 103.78 89.7387 103.746 89.7387Z" fill="#FF7F41"/>
<path d="M103.096 86.5701C102.746 86.5701 102.395 86.5701 102.095 86.5534H101.945C101.812 86.5534 101.678 86.5367 101.545 86.5367C101.128 86.5201 100.678 86.5034 100.177 86.4534C100.111 86.4534 100.027 86.4367 99.9606 86.4367C99.7438 86.42 99.5436 86.4033 99.3268 86.3866H99.2601L97.9093 86.2199L96.5751 86.0031L95.6579 85.8196C95.4244 85.7696 95.1409 85.7196 94.8241 85.6362C92.4893 85.0858 90.2045 84.3354 88.0199 83.4015L87.9532 83.3681L86.7858 82.8511C86.6524 82.7844 86.5189 82.7177 86.3855 82.651L84.2342 81.567L82.3831 80.4997C82.2663 80.433 82.0995 80.3329 81.8994 80.2162L80.2484 79.1322C79.9482 78.9487 79.7147 78.7653 79.5313 78.6319C79.4813 78.5985 79.4312 78.5651 79.3812 78.5318L79.3478 78.4984L78.0304 77.5312C77.7969 77.3644 77.5801 77.181 77.4133 77.0475C77.3633 76.9975 77.2966 76.9642 77.2466 76.9141L77.2132 76.8808L75.8457 75.7634C75.0118 75.0463 74.1613 74.2792 73.3275 73.4954C71.5264 71.7943 71.443 68.9425 73.1607 67.1414C74.8617 65.3403 77.7135 65.2569 79.5146 66.9747C80.215 67.6417 80.9322 68.2921 81.6493 68.8925L82.8667 69.8765C82.9501 69.9432 83.0501 70.0265 83.1335 70.0933C83.2002 70.16 83.3003 70.2267 83.3336 70.26L84.6511 71.2273C84.7345 71.2773 84.8012 71.344 84.8846 71.3941C84.9346 71.4274 85.0013 71.4774 85.0514 71.5108L85.1348 71.5608L86.8191 72.6615C86.8858 72.6949 86.9359 72.7282 87.0026 72.7616L88.6202 73.6955L90.3046 74.546C90.3546 74.5794 90.4047 74.596 90.4714 74.6294C90.4881 74.6461 90.5214 74.6461 90.5381 74.6627L91.5554 75.113C93.2564 75.8301 95.0409 76.4305 96.8753 76.8474L96.9754 76.8808C97.0588 76.8975 97.2089 76.9308 97.3756 76.9642L98.2262 77.1309L99.2435 77.2977L100.294 77.4311C100.411 77.4478 100.528 77.4478 100.644 77.4645C100.744 77.4811 100.861 77.4811 100.961 77.4978H101.028C101.261 77.5145 101.562 77.5312 101.895 77.5479C102.029 77.5479 102.179 77.5645 102.312 77.5645C103.062 77.5812 104.013 77.5812 104.914 77.4978L105.064 77.4811C105.314 77.4645 105.631 77.4311 105.948 77.3978C106.081 77.3811 106.214 77.3644 106.365 77.3477C106.431 77.3477 106.531 77.3144 106.648 77.2977C106.765 77.281 106.865 77.2643 106.982 77.2477L107.082 77.231C107.215 77.2143 107.382 77.181 107.449 77.1643L107.549 77.1476L108.249 76.9975C108.366 76.9642 108.466 76.9475 108.566 76.9141C108.666 76.8808 108.783 76.8641 108.883 76.8307L109.15 76.764L110.1 76.4805C110.967 76.1803 111.735 75.8802 112.418 75.5466C114.653 74.4793 117.338 75.4132 118.422 77.6479C119.506 79.8826 118.555 82.5676 116.321 83.6516C115.287 84.1519 114.169 84.6022 112.919 85.0191L112.785 85.0692L111.451 85.4694L111.051 85.5695C110.967 85.5861 110.884 85.6195 110.801 85.6362C110.617 85.6862 110.434 85.7362 110.234 85.7696L110.117 85.803L109.383 85.953C109.05 86.0364 108.733 86.0698 108.483 86.1198L108.332 86.1365C108.266 86.1532 108.182 86.1532 108.116 86.1698C107.915 86.2032 107.682 86.2365 107.415 86.2699H107.382C107.265 86.2866 107.132 86.3033 107.015 86.3199C106.598 86.37 106.148 86.42 105.631 86.4534C104.764 86.5367 103.863 86.5701 103.096 86.5701Z" fill="#00C389"/>
<path d="M82 83.4182C81.3829 83.4182 80.7659 83.2514 80.2155 82.8845L78.1309 81.5003L76.68 80.433C76.1297 80.0494 75.646 79.6492 75.1791 79.2656L74.0951 78.3817C73.8616 78.1983 73.6615 78.0148 73.4614 77.848C73.378 77.7813 73.3113 77.7146 73.2279 77.6312L73.1945 77.6146L72.2606 76.7974C72.0438 76.5973 71.7937 76.3805 71.5435 76.1303L69.8091 74.4459C68.9086 73.512 67.958 72.5615 67.0574 71.5608C65.2563 69.5763 63.3885 67.3416 61.3372 64.74C60.2365 63.3224 60.4867 61.2878 61.8876 60.1705C63.3051 59.0698 65.3397 59.3199 66.457 60.7208C68.4082 63.2057 70.176 65.3236 71.8771 67.1915L71.8937 67.2248C72.6942 68.1254 73.5447 68.9926 74.4453 69.9098L74.5954 70.0599L76.0963 71.4941C76.2297 71.6275 76.3965 71.7776 76.58 71.9277L77.4972 72.7449C77.5973 72.8283 77.6973 72.9117 77.7974 73.0117C77.9308 73.1285 78.0642 73.2619 78.1809 73.3453L79.2816 74.2458C79.6985 74.5794 80.0821 74.8962 80.4657 75.1631L80.5157 75.1964L81.9166 76.2304L83.8178 77.4812C85.3187 78.4651 85.7356 80.483 84.7517 81.9839C84.1013 82.9012 83.0506 83.4182 82 83.4182Z" fill="#59CBE8"/>
<path d="M25.4488 75.0297H21.3963C21.1795 75.0297 20.9961 74.8463 20.9961 74.6295V70.577C20.9961 70.0433 20.5625 69.593 20.0121 69.593H15.9763C15.4426 69.593 14.9924 70.0266 14.9924 70.577V74.6295C14.9924 74.8463 14.8089 75.0297 14.5921 75.0297H10.5396C10.0059 75.0297 9.55566 75.4633 9.55566 76.0136V80.0495C9.55566 80.5831 9.98927 81.0334 10.5396 81.0334H14.5921C14.8089 81.0334 14.9924 81.2169 14.9924 81.4337V85.4862C14.9924 86.0198 15.426 86.4701 15.9763 86.4701H20.0121C20.5458 86.4701 20.9961 86.0365 20.9961 85.4862V81.4337C20.9961 81.2169 21.1795 81.0334 21.3963 81.0334H25.4488C25.9825 81.0334 26.4327 80.5998 26.4327 80.0495V76.0136C26.4327 75.4633 25.9991 75.0297 25.4488 75.0297Z" fill="#00C389"/>
<path d="M120.591 19.1118H117.105C116.755 19.1118 116.471 18.8283 116.471 18.4781V14.9759C116.471 14.1921 115.838 13.5583 115.054 13.5583C114.27 13.5583 113.636 14.1921 113.636 14.9759V18.4614C113.636 18.8116 113.353 19.0951 113.003 19.0951H109.517C108.733 19.0951 108.1 19.7288 108.1 20.5126C108.1 21.2965 108.733 21.9302 109.517 21.9302H113.003C113.353 21.9302 113.636 22.2137 113.636 22.5639V26.0494C113.636 26.8332 114.27 27.4669 115.054 27.4669C115.838 27.4669 116.471 26.8332 116.471 26.0494V22.5639C116.471 22.2137 116.755 21.9302 117.105 21.9302H120.591C121.374 21.9302 122.008 21.2965 122.008 20.5126C122.008 19.7288 121.374 19.1118 120.591 19.1118Z" fill="#9063CD"/>
<path d="M18.2944 59.3699C18.0609 59.3699 17.8275 59.3365 17.5773 59.2865C15.6928 58.8195 13.825 57.8689 12.2073 56.5014C11.5069 55.9344 10.8065 55.2507 10.0893 54.4001C9.50565 53.7497 8.93863 52.9993 8.30491 52.032L8.27156 51.982L7.85463 51.3316L7.47106 50.6812C7.42103 50.5978 7.371 50.5144 7.32097 50.4143L7.13752 50.0641C7.10417 49.9974 7.07082 49.9474 7.03746 49.8807C6.95408 49.7306 6.87069 49.5805 6.80398 49.4137C6.38706 48.5799 6.00349 47.6793 5.6366 46.7454L5.61992 46.6954C5.23635 45.6447 4.95284 44.7608 4.73604 43.8936C4.45253 42.7763 4.26909 41.859 4.15235 40.9752C4.01893 39.9412 3.93555 38.9406 3.93555 38.0067V37.9733L3.95222 37.2562C3.95222 37.0894 3.9689 36.9227 3.98558 36.7559C3.98558 36.6892 4.00225 36.6225 4.00225 36.5725L4.03561 36.2222L4.20238 35.0215C4.50256 33.087 5.03623 31.1524 5.78669 29.318C6.55383 27.4502 7.52109 25.7158 8.6718 24.1481C9.65574 22.814 11.5236 22.5305 12.8744 23.4977C14.2086 24.4817 14.4921 26.3495 13.5248 27.7003C12.6743 28.8677 11.9405 30.1852 11.3568 31.6027C10.7898 33.0036 10.3729 34.4545 10.1394 35.9221L10.006 37.0061C10.006 37.0894 9.98928 37.1895 9.98928 37.2729C9.98928 37.3563 9.97261 37.423 9.97261 37.5064L9.95593 38.0567C9.95593 38.7238 10.0226 39.4242 10.1227 40.1914C10.2061 40.8418 10.3562 41.5589 10.573 42.4261C10.7397 43.0765 10.9565 43.7769 11.2734 44.6274C11.5569 45.3779 11.8738 46.095 12.2073 46.7621L12.224 46.7954C12.274 46.8788 12.3074 46.9789 12.3574 47.0623C12.4074 47.1456 12.4408 47.2124 12.4742 47.2957L12.6076 47.5459C12.6242 47.5792 12.6409 47.5959 12.6576 47.6293L13.0245 48.2463L13.3247 48.7133C13.8083 49.4304 14.2086 49.9807 14.6088 50.4143L14.6255 50.431C15.1425 51.0147 15.5927 51.4817 16.0263 51.8319L16.0597 51.8652C16.9936 52.649 18.0109 53.1827 19.0115 53.4329C20.6292 53.8164 21.6131 55.4508 21.2129 57.0518C20.8627 58.4526 19.6452 59.3699 18.2944 59.3699Z" fill="#00C389"/>
<path d="M5.38612 51.3149C4.13535 51.3149 2.9346 50.5645 2.41762 49.3304C1.33362 46.7288 0.59983 44.0938 0.249614 41.4922C0.0494901 39.9746 -0.0338947 38.5737 0.0161362 37.1895C0.0328132 36.8894 0.0494901 36.6225 0.0661671 36.3891C0.0661671 36.3057 0.0828441 36.2056 0.0828441 36.1222V36.0388C0.116198 35.772 0.149552 35.5219 0.166229 35.3051C0.182906 35.2217 0.182906 35.1383 0.199583 35.0549C0.266291 34.4879 0.366352 33.9542 0.449737 33.4706C0.483091 33.3372 0.499768 33.1871 0.533122 33.0537L0.549799 32.9369C0.766599 31.953 1.11682 30.4854 1.65048 29.0178C1.83392 28.5008 2.03405 28.0172 2.20082 27.5836C2.26753 27.4502 2.31756 27.3001 2.36759 27.1667L2.40094 27.0666C2.501 26.8498 2.60107 26.633 2.70113 26.4329C2.73448 26.3495 2.78451 26.2661 2.81787 26.1828L3.06802 25.6658C3.11805 25.549 3.18476 25.449 3.25147 25.3322L3.85184 24.2482L4.31879 23.4811C4.51892 23.1309 4.73572 22.8307 4.91916 22.5639L4.95252 22.5138C5.00255 22.4471 5.05258 22.3637 5.10261 22.297C5.23603 22.0969 5.38612 21.8801 5.56956 21.6466L6.10323 20.9462C6.25332 20.7461 6.40341 20.5626 6.52015 20.4292L6.78698 20.1123C7.15388 19.6787 7.52077 19.2952 7.85431 18.945C7.95437 18.8449 8.07111 18.7282 8.17117 18.6281L8.27123 18.528C9.35523 17.4941 10.3725 16.6269 11.4232 15.8764C11.6567 15.7096 11.8735 15.5595 12.0569 15.4428C12.1236 15.3928 12.207 15.3427 12.2737 15.2927L12.7407 14.9758C12.8574 14.9091 12.9741 14.8257 13.1076 14.759L13.2576 14.6756C13.341 14.6256 13.4244 14.5756 13.4911 14.5422C13.6912 14.4255 13.908 14.3088 14.1082 14.192L14.1916 14.142L14.9754 13.7417C15.2756 13.5916 15.5591 13.4582 15.7759 13.3748C15.8426 13.3415 15.9093 13.3248 15.976 13.2915L16.026 13.2748C16.0927 13.2414 16.1428 13.2248 16.2095 13.1914C16.4429 13.0913 16.7265 12.9579 17.06 12.8579L18.0106 12.5076C18.2441 12.4409 18.4609 12.3742 18.6943 12.3075L19.0946 12.1908C19.2113 12.1574 19.3614 12.1074 19.5449 12.074L20.5788 11.8406C20.7289 11.8072 20.929 11.7572 21.1625 11.7238L22.013 11.5904C22.2799 11.5404 22.5134 11.5237 22.6968 11.507L23.0971 11.4737C23.6807 11.407 24.2311 11.3903 24.7147 11.3736C24.8648 11.3736 25.0149 11.3569 25.1483 11.3569H25.2317H25.3151C25.5486 11.3569 25.782 11.3569 26.0155 11.3736L26.9494 11.407L27.6999 11.4737C27.9334 11.4904 28.1668 11.507 28.4003 11.5404L28.5337 11.5571L29.4843 11.7071C29.5177 11.7071 29.551 11.7238 29.6011 11.7238C29.7178 11.7405 29.8846 11.7739 30.0513 11.8072L30.8185 11.974C31.052 12.024 31.2688 12.074 31.5022 12.1241L31.619 12.1574L33.1199 12.591L34.5041 13.0747C34.7042 13.158 34.9043 13.2414 35.1045 13.3081L35.4046 13.4249C36.7555 13.9919 37.8562 14.5089 38.8901 15.0759C40.4578 15.9264 41.0248 17.8609 40.1909 19.4286C39.3404 20.9962 37.4059 21.5799 35.8382 20.7294C35.0044 20.2791 34.0705 19.8455 32.9365 19.3619L32.6696 19.2618C32.5195 19.1951 32.3694 19.1451 32.2193 19.0784L31.0686 18.6781L29.9179 18.3446C29.7678 18.3112 29.6011 18.2779 29.451 18.2445L28.7505 18.0944C28.7172 18.0944 28.6672 18.0777 28.6338 18.0777C28.5671 18.0611 28.5171 18.0611 28.4504 18.0444L27.6332 17.911C27.4664 17.8943 27.2996 17.8776 27.1496 17.8609L26.4991 17.8109L25.8487 17.7942C25.682 17.7942 25.5319 17.7776 25.3651 17.7776C25.2317 17.7776 25.0816 17.7942 24.9482 17.7942C24.5646 17.8109 24.1977 17.8109 23.8975 17.8609L23.8142 17.8776L23.3305 17.9277C23.2138 17.9443 23.1804 17.9443 23.1638 17.9443L23.0971 17.961L22.1465 18.1111C22.1131 18.1111 22.0798 18.1278 22.0297 18.1278L21.0791 18.3446C21.0458 18.3613 20.9958 18.3613 20.9624 18.3779C20.8957 18.3946 20.8457 18.4113 20.779 18.428L20.5121 18.5114C20.3454 18.5614 20.1953 18.6114 20.0285 18.6614L19.1613 18.9783C19.0779 19.0117 18.9278 19.0617 18.7777 19.1284C18.711 19.1618 18.6276 19.1951 18.5609 19.2285C18.4775 19.2618 18.3941 19.3118 18.2941 19.3452C18.1607 19.3952 18.0273 19.4619 17.9605 19.4953L17.8938 19.5286L17.1267 19.9122C16.9933 19.9956 16.8432 20.0623 16.7098 20.1457C16.6264 20.1957 16.543 20.2458 16.4429 20.2958C16.3929 20.3291 16.3429 20.3458 16.2928 20.3792C16.2428 20.4125 16.2095 20.4292 16.1594 20.4626L15.8259 20.6794C15.7258 20.7461 15.6258 20.8128 15.5424 20.8628C15.409 20.9462 15.2922 21.0296 15.2088 21.0963L15.1421 21.1463C14.375 21.6967 13.5912 22.3471 12.7573 23.1475C12.6573 23.2476 12.5572 23.3643 12.4571 23.4644C12.1736 23.7479 11.9235 24.0147 11.7067 24.2649L11.6567 24.3149L11.3398 24.6818C11.3231 24.7152 11.2397 24.7819 11.2064 24.8319L11.173 24.8819L10.606 25.6157C10.5393 25.6991 10.4559 25.8325 10.3725 25.9493C10.3058 26.0493 10.2391 26.1494 10.1724 26.2495L10.1557 26.2661C10.0223 26.4663 9.8889 26.6497 9.80551 26.7998L9.77216 26.8498L9.33856 27.5669L8.85493 28.4341C8.82157 28.4842 8.78822 28.5509 8.77154 28.6009L8.60477 28.9511C8.55474 29.0512 8.50471 29.1513 8.47136 29.2346C8.40465 29.3847 8.33794 29.5181 8.27123 29.6682C8.20452 29.8183 8.15449 29.9517 8.08779 30.1018C7.93769 30.4687 7.7876 30.8189 7.68754 31.1191L7.65418 31.2359C7.33732 32.0864 7.07049 33.0203 6.78698 34.2878C6.75363 34.4212 6.73695 34.5713 6.7036 34.7047C6.62021 35.1049 6.5535 35.4885 6.52015 35.822V35.8721C6.50347 35.9888 6.4868 36.1055 6.47012 36.2223C6.45344 36.3891 6.42009 36.5391 6.42009 36.6726C6.42009 36.7726 6.40341 36.8727 6.40341 36.9727C6.38674 37.1562 6.37006 37.323 6.37006 37.4397V37.4731C6.3367 38.4737 6.38674 39.5243 6.53683 40.6584C6.82034 42.6929 7.40403 44.8109 8.28791 46.8955C8.97166 48.5299 8.18785 50.4144 6.5535 51.0981C6.21997 51.2315 5.80304 51.3149 5.38612 51.3149Z" fill="#FF7F41"/>
<path d="M43.9766 32.1365C42.7759 32.1365 41.5918 31.5695 40.8247 30.5188C37.9729 26.4997 33.3534 23.5479 28.1668 22.4138C28.1335 22.4138 28.1001 22.3971 28.0501 22.3971L27.5498 22.3138C26.5659 22.1637 25.7153 22.1303 24.9148 22.1803C22.7969 22.3138 20.9624 20.6961 20.829 18.5781C20.6956 16.4601 22.3132 14.6257 24.4312 14.4923C25.782 14.4089 27.1829 14.4756 28.7005 14.6924L29.2175 14.7758C29.2675 14.7924 29.3342 14.7924 29.3843 14.8091H29.4176L29.8345 14.8925C36.8722 16.4435 43.1761 20.5126 47.1286 26.0661C48.3626 27.8005 47.9624 30.202 46.2113 31.4361C45.5276 31.903 44.7437 32.1365 43.9766 32.1365Z" fill="#59CBE8"/>
<script xmlns=""/></svg>